<svg xmlns="http://www.w3.org/2000/svg" viewBox="0 0 300 92.399582" height="92.399582" width="300"> <g transform="scale(0.19785394)"> <path style="stroke-width:5.05424" fill="#1fbc45" d="m 408.68862,333.8044 0.009,0.59315 0.004,0.29795 c 0.18694,71.91774 -59.58485,130.93907 -134.53126,132.29044 -0.85543,0.0154 -1.71097,0.0231 -2.56654,0.0231 H 21.034693 C 11.007191,467.00905 2.5761396,460.42672 0.14656613,451.50411 L 338.63176,215.013 c 45.60925,25.97569 68.96153,65.57282 70.05686,118.7914 z M 231.25625,0 C 278.01331,0 321.188,23.909861 344.73248,62.682399 L 0,303.53751 V 20.793975 C 0,9.3097796 9.6674353,0 21.592821,0 Z"/> <path style="fill:#fc4064;fill-opacity:1;stroke-width:5.05424" d="m 682.84802,275.67359 c 17.71581,0 30.80799,-3.84491 39.27654,-11.53475 8.46855,-7.68983 12.70283,-17.95916 12.70283,-30.80799 v 0 -60.73994 H 528.37001 v 29.49391 h 176.67145 v 22.19344 c 0,14.79562 -6.52176,22.19344 -19.56527,22.19344 v 0 h -2.62817 z m 51.97937,73.88079 V 320.06047 H 558.15594 v -22.19344 c 0,-14.79562 6.52176,-22.19344 19.56527,-22.19344 v 0 h 2.62817 V 246.4717 c -34.65291,0 -51.97937,14.11425 -51.97937,42.34274 v 0 60.73994 z m 63.07608,0 V 172.59091 h -29.78593 v 176.96347 z m 189.8123,0 c 8.76057,0 16.30443,-1.16808 22.63143,-3.50423 6.3271,-2.33615 11.5348,-5.49969 15.6231,-9.49061 4.0882,-3.99092 7.1057,-8.66323 9.0525,-14.01691 1.9468,-5.35368 2.9202,-11.14539 2.9202,-17.37513 v 0 -14.89296 c 0,-10.90205 -4.0882,-20.636 -12.2648,-29.20189 8.1766,-8.37121 12.2648,-18.10518 12.2648,-29.2019 v 0 -14.89296 c 0,-6.03506 -1.022,-11.7781 -3.0662,-17.22912 -2.0441,-5.45101 -5.1103,-10.17199 -9.1986,-14.16292 -4.0882,-3.99092 -9.2959,-7.15446 -15.623,-9.49061 -6.3271,-2.33615 -13.77354,-3.50423 -22.33943,-3.50423 v 0 H 831.19363 v 29.49391 h 156.52214 c 6.42442,0 11.48608,1.80078 15.18503,5.40235 3.6989,3.60157 5.5483,9.10126 5.5483,16.49907 0,7.39782 -1.8494,12.99485 -5.5483,16.79109 -3.69895,3.79625 -8.76061,5.69437 -15.18503,5.69437 v 0 H 831.19363 v 29.49391 h 159.44233 c 11.87544,1.16808 17.81314,8.56589 17.81314,22.19344 0,7.39782 -1.8494,12.8975 -5.5483,16.49907 -3.69895,3.60157 -8.76061,5.40235 -15.18503,5.40235 v 0 H 831.19363 v 29.49391 z m 289.39073,0 v -29.49391 h -150.9738 c -2.9201,0 -5.889,-0.4867 -8.9065,-1.4601 -3.0176,-0.9734 -5.743,-2.38481 -8.1766,-4.23427 -2.4335,-1.84946 -4.4289,-4.08827 -5.9864,-6.71644 -1.5574,-2.62817 -2.3361,-5.69436 -2.3361,-9.19859 V 172.59091 h -29.4939 V 305.1675 c 0,13.62755 4.9157,24.43225 14.7469,32.4141 9.8313,7.98186 23.0209,11.97278 39.5686,11.97278 z m 239.1635,0 v -29.49391 h -150.9738 c -2.9202,0 -5.889,-0.4867 -8.9065,-1.4601 -3.0176,-0.9734 -5.743,-2.38481 -8.1766,-4.23427 -2.4335,-1.84946 -4.4289,-4.08827 -5.9864,-6.71644 -1.5574,-2.62817 -2.3361,-5.69436 -2.3361,-9.19859 V 172.59091 h -29.4939 V 305.1675 c 0,13.62755 4.9157,24.43225 14.7469,32.4141 9.8313,7.98186 23.0209,11.97278 39.5686,11.97278 z"/> <path style="fill:#fc4064;fill-opacity:1;stroke-width:5.05424" opacity="0.8" d="m 546.13053,439.94601 7.75854,-31.46124 c 0.85416,-4.12841 1.77948,-7.90092 2.63364,-11.88696 h 0.28472 c 0.85415,3.98604 1.63712,7.75855 2.56244,11.88696 l 7.90091,31.46124 h 7.90091 l 10.81926,-52.17442 h -6.33497 l -5.48081,28.40053 c -0.9965,5.55199 -1.99302,11.17516 -2.98952,16.8695 h -0.3559 c -1.21004,-5.69434 -2.4201,-11.31751 -3.70132,-16.8695 l -7.33147,-28.40053 h -5.97906 l -7.1891,28.40053 c -1.28124,5.62317 -2.56247,11.24634 -3.77251,16.8695 h -0.28473 c -0.9965,-5.62316 -2.0642,-11.24633 -3.0607,-16.8695 l -5.48081,-28.40053 h -6.83322 l 11.10398,52.17442 z m 78.43961,0 7.75853,-31.46124 c 0.85416,-4.12841 1.77949,-7.90092 2.63363,-11.88696 h 0.28472 c 0.85416,3.98604 1.63713,7.75855 2.56246,11.88696 l 7.9009,31.46124 h 7.9009 l 10.81926,-52.17442 h -6.33496 l -5.4808,28.40053 c -0.99652,5.55199 -1.99302,11.17516 -2.98953,16.8695 h -0.3559 c -1.21006,-5.69434 -2.42009,-11.31751 -3.70132,-16.8695 l -7.33147,-28.40053 h -5.97907 l -7.18911,28.40053 c -1.28123,5.62317 -2.56245,11.24634 -3.7725,16.8695 h -0.28471 c -0.99652,-5.62316 -2.06421,-11.24633 -3.06072,-16.8695 l -5.4808,-28.40053 h -6.83322 l 11.10397,52.17442 z m 78.43958,0 7.75855,-31.46124 c 0.85414,-4.12841 1.77949,-7.90092 2.63363,-11.88696 h 0.28471 c 0.85416,3.98604 1.63712,7.75855 2.56247,11.88696 l 7.9009,31.46124 h 7.9009 l 10.81925,-52.17442 h -6.33495 l -5.48081,28.40053 c -0.99651,5.55199 -1.99302,11.17516 -2.98954,16.8695 h -0.35589 c -1.21005,-5.69434 -2.4201,-11.31751 -3.70132,-16.8695 l -7.33147,-28.40053 h -5.97906 l -7.18911,28.40053 c -1.28123,5.62317 -2.56246,11.24634 -3.7725,16.8695 h -0.28472 c -0.99651,-5.62316 -2.0642,-11.24633 -3.06071,-16.8695 l -5.48081,-28.40053 h -6.83321 L 695.18,439.94601 Z m 67.62034,0.92533 c 2.56246,0 4.69784,-1.99302 4.69784,-4.91137 0,-2.91835 -2.13538,-5.05373 -4.69784,-5.05373 -2.56245,0 -4.69783,2.13538 -4.69783,5.05373 0,2.91835 2.13538,4.91137 4.69783,4.91137 z m 65.3426,-0.92533 v -5.62316 h -27.83111 l 27.5464,-42.70758 v -3.84368 h -33.16956 v 5.55198 h 25.05512 l -27.54639,42.70758 v 3.91486 z m 33.09838,0 v -52.17442 h -6.61967 v 52.17442 z m 46.83598,0 c 11.67342,0 19.78785,-5.05373 19.78785,-15.30355 0,-7.11793 -4.41311,-11.24634 -10.67689,-12.45637 v -0.3559 c 4.91137,-1.56595 7.68736,-6.12142 7.68736,-11.31752 0,-9.18212 -7.33147,-12.74108 -17.93718,-12.74108 h -15.51709 v 52.17442 z m -2.27773,-29.96649 h -7.75854 v -17.01185 h 8.04325 c 8.11445,0 12.31402,2.27774 12.31402,8.39916 0,5.26727 -3.63014,8.61269 -12.59873,8.61269 z m 1.35241,24.69922 h -9.11095 v -19.64548 h 9.11095 c 9.11095,0 14.23585,2.91835 14.23585,9.39566 0,7.04676 -5.26726,10.24982 -14.23585,10.24982 z m 76.37539,5.26727 v -5.62316 h -22.77738 v -46.55126 h -6.61968 v 52.17442 z m 54.52341,0 v -5.62316 h -22.7774 v -46.55126 h -6.6196 v 52.17442 z m 27.9022,0.92533 c 2.5625,0 4.6979,-1.99302 4.6979,-4.91137 0,-2.91835 -2.1354,-5.05373 -4.6979,-5.05373 -2.5624,0 -4.6978,2.13538 -4.6978,5.05373 0,2.91835 2.1354,4.91137 4.6978,4.91137 z m 52.6727,0 c 6.7621,0 11.8869,-2.70481 16.0153,-7.47383 l -3.6301,-4.12839 c -3.3454,3.63015 -7.1179,5.8367 -12.1004,5.8367 -9.9653,0 -16.229,-8.2568 -16.229,-21.42497 0,-13.02582 6.5485,-21.14026 16.4425,-21.14026 4.4843,0 7.972,2.0642 10.6768,4.98256 l 3.559,-4.27076 c -2.9896,-3.34542 -7.972,-6.47732 -14.307,-6.47732 -13.2394,0 -23.1333,10.24982 -23.1333,27.11932 0,16.94068 9.7515,26.97695 22.7062,26.97695 z m 60.9295,0 c 13.0969,0 22.279,-10.46335 22.279,-27.19049 0,-16.72714 -9.1821,-26.90578 -22.279,-26.90578 -13.097,0 -22.2792,10.17864 -22.2792,26.90578 0,16.72714 9.1822,27.19049 22.2792,27.19049 z m 0,-5.76552 c -9.3957,0 -15.5172,-8.39915 -15.5172,-21.42497 0,-13.097 6.1215,-21.14026 15.5172,-21.14026 9.3245,0 15.517,8.04326 15.517,21.14026 0,13.02582 -6.1925,21.42497 -15.517,21.42497 z m 55.4487,4.84019 v -28.8988 c 0,-4.48429 -0.4983,-10.81925 -0.783,-15.37472 h 0.2847 l 4.1285,11.88693 9.8938,27.11932 h 4.4132 l 9.8939,-27.11932 4.1284,-11.88693 h 0.2847 c -0.3559,4.55547 -0.8542,10.89043 -0.8542,15.37472 v 28.8988 h 6.1926 v -52.17442 h -7.9721 l -9.965,27.90229 c -1.2101,3.63014 -2.349,7.26028 -3.5591,10.89042 h -0.3559 c -1.2811,-3.63014 -2.4912,-7.26028 -3.7012,-10.89042 l -10.0364,-27.90229 h -7.972 v 52.17442 z"/> </g> </svg>